<?xml version="1.0" standalone="no"?>
<!DOCTYPE svg PUBLIC "-//W3C//DTD SVG 1.1//EN" "http://www.w3.org/Graphics/SVG/1.1/DTD/svg11.dtd" >
<svg>
<metadata>
Created by FontForge 20120731 at Thu May 11 16:20:53 2017
 By www-data
 The digitally encoded machine readable software for producing the
 Typefaces licensed to you is copyrighted (c) 1991, 2002 Adobe Systems.
 All Rights Reserved. This software is the property of Adobe Systems
 Incorporated and its licensors, and may not be reproduced, used, 
 displayed, modified, disclosed or transferred without the express 
 written approval of Adobe.
 
 The digitally encoded machine readable outline data for producing the Typefaces 
 provided as part of your laser printer is copyrighted (c) 1981, 2002 Heidelberger Druckmaschinen AG. 
 All rights reserved. This data is the property of Heidelberger Druckmaschinen AG, 
 and may not be reproduced, used, displayed, modified, disclosed or transferred 
 without the express written approval of Heidelberger Druckmaschinen AG. 
</metadata>
<defs>
<font id="TradeGothicLTStd-Extended" horiz-adv-x="667" >
  <font-face 
    font-family="Trade Gothic LT Std"
    font-weight="400"
    font-stretch="expanded"
    units-per-em="1000"
    panose-1="2 11 5 5 4 5 2 2 2 4"
    ascent="727"
    descent="-273"
    x-height="523"
    cap-height="727"
    bbox="-170 -250 1019 1017"
    underline-thickness="50"
    underline-position="-50"
    stemh="69"
    stemv="81"
    unicode-range="U+0020-FB02"
  />
<missing-glyph horiz-adv-x="500" 
d="M0 0v700h500v-700h-500zM250 395l170 255h-340zM280 350l170 -255v510zM80 50h340l-170 255zM50 605v-510l170 255z" />
    <glyph glyph-name="f_i" unicode="fi" horiz-adv-x="722" 
d="M145 0v443h-132v69h132v40c0 86 27 193 186 193c83 0 115 -9 136 -14v-72c-36 9 -71 17 -112 17c-112 0 -129 -53 -129 -130v-34h215v-69h-215v-443h-81zM561 0v523h81v-523h-81zM554 727h93v-93h-93v93z" />
    <glyph glyph-name="f_l" unicode="fl" horiz-adv-x="722" 
d="M145 0v443h-132v69h132v40c0 86 27 193 186 193c83 0 115 -9 136 -14v-72c-36 9 -71 17 -112 17c-112 0 -129 -53 -129 -130v-34h215v-69h-215v-443h-81zM561 0v727h81v-727h-81z" />
    <glyph glyph-name=".notdef" horiz-adv-x="500" 
d="M0 0v700h500v-700h-500zM250 395l170 255h-340zM280 350l170 -255v510zM80 50h340l-170 255zM50 605v-510l170 255z" />
    <glyph glyph-name="space" unicode=" " horiz-adv-x="361" 
 />
    <glyph glyph-name="exclam" unicode="!" horiz-adv-x="333" 
d="M115 0v116h103v-116h-103zM134 216l-24 511h113l-21 -511h-68z" />
    <glyph glyph-name="quotedbl" unicode="&#x22;" horiz-adv-x="500" 
d="M142 471v256h66v-256h-66zM292 471v256h66v-256h-66z" />
    <glyph glyph-name="numbersign" unicode="#" horiz-adv-x="722" 
d="M305 441l-20 -155h132l20 155h-132zM109 226v60h116l20 155h-107v60h116l30 226h60l-30 -226h132l30 226h60l-30 -226h107v-60h-116l-20 -155h107v-60h-116l-30 -226h-60l30 226h-132l-30 -226h-60l30 226h-107z" />
    <glyph glyph-name="dollar" unicode="$" horiz-adv-x="722" 
d="M324 -144v144c-72 8 -181 18 -290 137l61 55c60 -72 142 -110 231 -118v258c-187 33 -268 90 -268 190c0 145 140 194 270 194v103h63v-103c156 -5 230 -76 275 -119l-57 -57c-82 86 -145 95 -218 102v-244c105 -17 290 -42 290 -195c0 -160 -159 -195 -290 -203v-144
h-67zM326 412v230c-90 0 -190 -30 -190 -110c0 -64 52 -95 190 -120zM391 320v-246c94 5 212 31 212 120c0 83 -70 102 -212 126z" />
    <glyph glyph-name="percent" unicode="%" horiz-adv-x="1000" 
d="M629 162c0 -61 50 -111 111 -111s111 50 111 111s-50 111 -111 111s-111 -50 -111 -111zM261 -18l424 763h60l-424 -763h-60zM149 565c0 -61 50 -111 111 -111s111 50 111 111s-50 111 -111 111s-111 -50 -111 -111zM560 162c0 99 81 180 180 180s180 -81 180 -180
s-81 -180 -180 -180s-180 81 -180 180zM80 565c0 99 81 180 180 180s180 -81 180 -180s-81 -180 -180 -180s-180 81 -180 180z" />
    <glyph glyph-name="ampersand" unicode="&#x26;" horiz-adv-x="944" 
d="M803 395l71 -35c-38 -93 -99 -166 -160 -225c71 -44 116 -66 200 -72v-81c-105 3 -186 34 -269 97c-78 -45 -161 -97 -333 -97c-177 0 -277 79 -277 220c0 136 120 203 237 235c-47 55 -61 111 -61 155c0 76 56 153 179 153c110 0 193 -53 193 -160
c0 -129 -109 -175 -166 -190c70 -78 136 -137 232 -216c88 76 115 132 154 216zM119 200c0 -126 133 -144 205 -144c97 0 192 36 252 73c-97 78 -205 189 -252 242c-84 -26 -205 -63 -205 -171zM396 676c-60 0 -104 -34 -104 -91c0 -44 27 -84 68 -127c65 20 142 44 142 133
c0 68 -67 85 -106 85z" />
    <glyph glyph-name="quoteright" unicode="&#x2019;" horiz-adv-x="278" 
d="M83 471l55 152h-46v104h103v-109l-63 -147h-49z" />
    <glyph glyph-name="parenleft" unicode="(" horiz-adv-x="333" 
d="M225 745h91c-117 -140 -178 -223 -178 -412s61 -272 178 -412h-91c-130 141 -168 264 -168 412s38 271 168 412z" />
    <glyph glyph-name="parenright" unicode=")" horiz-adv-x="333" 
d="M108 -79h-91c117 140 178 223 178 412s-61 272 -178 412h91c130 -141 168 -264 168 -412s-38 -271 -168 -412z" />
    <glyph glyph-name="asterisk" unicode="*" horiz-adv-x="500" 
d="M76 566l20 77l125 -57l6 5l-16 136h78l-16 -136l6 -5l125 57l20 -77l-138 -23l-3 -7l96 -104l-61 -45l-65 126h-6l-65 -126l-61 45l96 104l-3 7z" />
    <glyph glyph-name="plus" unicode="+" horiz-adv-x="600" 
d="M270 0v223h-223v60h223v223h60v-223h223v-60h-223v-223h-60z" />
    <glyph glyph-name="comma" unicode="," horiz-adv-x="361" 
d="M120 -158l55 158h-46v116h103v-116l-63 -158h-49z" />
    <glyph glyph-name="hyphen" unicode="-" horiz-adv-x="333" 
d="M31 304h271v-74h-271v74z" />
    <glyph glyph-name="period" unicode="." horiz-adv-x="361" 
d="M129 0v116h103v-116h-103z" />
    <glyph glyph-name="slash" unicode="/" horiz-adv-x="278" 
d="M-11 -18l222 763h70l-222 -763h-70z" />
    <glyph glyph-name="zero" unicode="0" horiz-adv-x="722" 
d="M361 56c133 0 248 108 248 310c0 158 -76 305 -248 305s-248 -147 -248 -305c0 -202 115 -310 248 -310zM361 -18c-164 0 -329 109 -329 379c0 320 219 384 329 384s329 -64 329 -384c0 -270 -165 -379 -329 -379z" />
    <glyph glyph-name="one" unicode="1" horiz-adv-x="722" 
d="M188 0v74h146v571l-158 -11v60c60 8 141 35 182 51h57v-671h145v-74h-372z" />
    <glyph glyph-name="two" unicode="2" horiz-adv-x="722" 
d="M670 74v-74h-627v67c23 45 78 140 259 230c169 85 284 104 284 231c0 81 -76 143 -208 143c-172 0 -228 -94 -255 -154l-72 34c25 74 113 194 317 194c206 0 302 -87 302 -213c0 -153 -118 -202 -235 -253c-134 -59 -224 -100 -302 -205h537z" />
    <glyph glyph-name="three" unicode="3" horiz-adv-x="722" 
d="M18 119l62 54c73 -78 158 -117 273 -117c89 0 230 31 230 153c0 95 -76 139 -241 139h-134v74h104c131 0 247 25 247 122c0 90 -110 127 -207 127c-117 0 -199 -44 -244 -99l-62 55c58 60 132 118 309 118c121 0 285 -44 285 -192c0 -110 -77 -144 -121 -164
c67 -23 145 -62 145 -177c0 -174 -155 -230 -320 -230c-188 0 -271 82 -326 137z" />
    <glyph glyph-name="four" unicode="4" horiz-adv-x="722" 
d="M109 236h384v428zM574 162v-180h-81v180h-477v72l442 493h116v-491h118v-74h-118z" />
    <glyph glyph-name="five" unicode="5" horiz-adv-x="722" 
d="M39 117l63 55c45 -55 96 -116 254 -116c162 0 242 75 242 184c0 120 -123 176 -231 176c-91 0 -180 -29 -229 -101l-66 19l28 393h524v-74h-456l-18 -231c42 31 112 68 229 68c165 0 303 -92 303 -252c0 -134 -96 -256 -316 -256c-201 0 -267 72 -327 135z" />
    <glyph glyph-name="six" unicode="6" horiz-adv-x="722" 
d="M650 657l-51 -62c-66 55 -124 76 -217 76c-132 0 -276 -117 -271 -318c77 65 158 112 282 112c197 0 299 -108 299 -235c0 -179 -153 -248 -316 -248c-201 0 -346 135 -346 368c0 264 171 395 359 395c131 0 194 -34 261 -88zM608 223c0 102 -95 168 -219 168
c-125 0 -211 -63 -267 -126c18 -141 142 -209 258 -209c127 0 228 57 228 167z" />
    <glyph glyph-name="seven" unicode="7" horiz-adv-x="722" 
d="M56 653v74h613v-49l-423 -696h-96l415 671h-509z" />
    <glyph glyph-name="eight" unicode="8" horiz-adv-x="722" 
d="M688 196c0 -170 -174 -214 -328 -214s-326 48 -326 220c0 116 113 165 158 177v2c-109 43 -130 101 -130 182c0 75 74 182 298 182c153 0 299 -52 299 -194c0 -106 -81 -141 -134 -164c91 -37 163 -82 163 -191zM115 198c0 -116 161 -142 245 -142c99 0 247 28 247 137
c0 123 -197 150 -247 152c-58 -6 -245 -22 -245 -147zM578 544c0 105 -131 127 -218 127c-107 0 -217 -24 -217 -127c0 -44 32 -66 60 -85c28 -18 126 -40 157 -40c74 8 218 38 218 125z" />
    <glyph glyph-name="nine" unicode="9" horiz-adv-x="722" 
d="M72 70l51 62c66 -55 124 -76 217 -76c132 0 276 117 271 318c-77 -65 -158 -112 -282 -112c-197 0 -299 108 -299 235c0 179 153 248 316 248c201 0 346 -135 346 -368c0 -264 -171 -395 -359 -395c-131 0 -194 34 -261 88zM114 504c0 -102 95 -168 219 -168
c125 0 211 63 267 126c-18 141 -142 209 -258 209c-127 0 -228 -57 -228 -167z" />
    <glyph glyph-name="colon" unicode=":" horiz-adv-x="361" 
d="M129 0v116h103v-116h-103zM129 301v116h103v-116h-103z" />
    <glyph glyph-name="semicolon" unicode=";" horiz-adv-x="361" 
d="M120 -158l55 158h-46v116h103v-116l-63 -158h-49zM129 301v116h103v-116h-103z" />
    <glyph glyph-name="less" unicode="&#x3c;" horiz-adv-x="600" 
d="M47 225v56l506 233v-66l-425 -195l425 -195v-66z" />
    <glyph glyph-name="equal" unicode="=" horiz-adv-x="600" 
d="M47 320v60h506v-60h-506zM47 126v60h506v-60h-506z" />
    <glyph glyph-name="greater" unicode="&#x3e;" horiz-adv-x="600" 
d="M553 281v-56l-506 -233v66l425 195l-425 195v66z" />
    <glyph glyph-name="question" unicode="?" horiz-adv-x="611" 
d="M317 219h-74c-3 118 43 155 148 217c61 34 99 57 99 122c0 67 -67 113 -173 113c-94 0 -171 -36 -219 -118l-71 41c63 94 132 151 291 151c118 0 256 -50 256 -181c0 -114 -52 -140 -130 -189c-103 -54 -124 -71 -127 -156zM229 0v116h103v-116h-103z" />
    <glyph glyph-name="at" unicode="@" horiz-adv-x="800" 
d="M243 292c0 -63 27 -97 82 -97c101 0 183 149 183 243c0 67 -32 91 -81 91c-114 0 -184 -148 -184 -237zM552 503l25 68h63l-106 -293c-7 -22 -14 -43 -14 -61s12 -27 31 -27c52 0 171 93 171 251c0 153 -149 250 -302 250c-193 0 -342 -149 -342 -328
c0 -185 156 -327 342 -327c115 0 227 57 277 134h68c-68 -116 -205 -188 -345 -188c-229 0 -402 173 -402 381c0 212 180 382 402 382c200 0 362 -133 362 -318c0 -158 -135 -292 -247 -292c-39 0 -71 22 -70 71h-2c-28 -30 -78 -71 -146 -71c-91 0 -140 69 -140 152
c0 142 105 302 256 302c51 0 95 -25 116 -86h3z" />
    <glyph glyph-name="A" unicode="A" horiz-adv-x="889" 
d="M250 267h390l-195 391zM17 0l374 727h108l373 -727h-99l-94 189h-469l-95 -189h-98z" />
    <glyph glyph-name="B" unicode="B" horiz-adv-x="889" 
d="M95 0v727h421c83 0 282 0 282 -190c0 -100 -65 -131 -111 -153c44 -19 136 -59 136 -180c0 -196 -205 -204 -356 -204h-372zM183 343v-265h341c106 0 209 18 209 129c0 101 -80 136 -199 136h-351zM183 653v-236h309c102 0 218 17 218 119c0 116 -118 117 -248 117h-279z
" />
    <glyph glyph-name="C" unicode="C" horiz-adv-x="889" 
d="M773 231l78 -38c-78 -151 -213 -211 -390 -211c-282 0 -415 169 -415 380c0 250 169 383 414 383c156 0 315 -60 380 -208l-76 -35c-51 119 -164 169 -303 169c-208 0 -325 -113 -325 -320c0 -167 113 -291 333 -291c144 0 244 60 304 171z" />
    <glyph glyph-name="D" unicode="D" horiz-adv-x="889" 
d="M95 0v727h359c226 0 389 -119 389 -357c0 -296 -225 -370 -417 -370h-331zM183 649v-571h257c72 0 313 9 313 295c0 213 -151 276 -299 276h-271z" />
    <glyph glyph-name="E" unicode="E" horiz-adv-x="778" 
d="M95 0v727h648v-78h-560v-232h468v-78h-468v-261h572v-78h-660z" />
    <glyph glyph-name="F" unicode="F" horiz-adv-x="778" 
d="M95 0v727h664v-78h-576v-230h486v-78h-486v-341h-88z" />
    <glyph glyph-name="G" unicode="G" horiz-adv-x="889" 
d="M456 353h375v-359h-78v106c-49 -57 -128 -118 -292 -118c-282 0 -415 169 -415 380c0 250 169 383 414 383c173 0 306 -78 360 -200l-74 -39c-57 130 -191 165 -289 165c-204 0 -321 -113 -321 -320c0 -167 113 -291 329 -291c132 0 274 64 286 215h-295v78z" />
    <glyph glyph-name="H" unicode="H" horiz-adv-x="944" 
d="M98 0v727h88v-308h572v308h88v-727h-88v341h-572v-341h-88z" />
    <glyph glyph-name="I" unicode="I" horiz-adv-x="278" 
d="M95 0v727h88v-727h-88z" />
    <glyph glyph-name="J" unicode="J" horiz-adv-x="611" 
d="M428 727h88v-471c0 -219 -156 -274 -271 -274c-157 0 -214 95 -238 158l78 39c17 -41 49 -119 167 -119c108 0 175 72 176 192v475z" />
    <glyph glyph-name="K" unicode="K" horiz-adv-x="889" 
d="M95 0v727h88v-387l496 387h135l-355 -274l408 -453h-119l-358 400l-207 -162v-238h-88z" />
    <glyph glyph-name="L" unicode="L" horiz-adv-x="778" 
d="M95 0v727h88v-649h574v-78h-662z" />
    <glyph glyph-name="M" unicode="M" horiz-adv-x="1000" 
d="M95 0v727h136l269 -612l269 612h136v-727h-81v649h-2l-284 -649h-74l-286 649h-2v-649h-81z" />
    <glyph glyph-name="N" unicode="N" horiz-adv-x="944" 
d="M95 0v727h125l541 -598v598h88v-727h-88l-582 649v-649h-84z" />
    <glyph glyph-name="O" unicode="O" horiz-adv-x="944" 
d="M46 359c0 242 179 386 426 386s426 -144 426 -386c0 -258 -216 -377 -426 -377s-426 119 -426 377zM136 375c0 -221 157 -315 336 -315c177 0 336 94 336 315c0 162 -125 296 -336 296s-336 -134 -336 -296z" />
    <glyph glyph-name="P" unicode="P" horiz-adv-x="832" 
d="M95 0v727h426c147 0 281 -42 281 -208c0 -167 -134 -209 -281 -209h-338v-310h-88zM183 649v-261h315c146 0 220 31 220 130c0 100 -74 131 -220 131h-315z" />
    <glyph glyph-name="Q" unicode="Q" horiz-adv-x="944" 
d="M894 -11v-83c-116 0 -171 21 -244 107c-56 -21 -117 -31 -178 -31c-210 0 -426 119 -426 377c0 242 179 386 426 386s426 -144 426 -386c0 -149 -71 -251 -173 -312c25 -28 57 -58 169 -58zM484 171v84c92 -17 140 -49 190 -143c81 47 134 133 134 263
c0 162 -125 296 -336 296s-336 -134 -336 -296c0 -221 157 -315 336 -315c45 0 90 6 131 19c-31 51 -58 77 -119 92z" />
    <glyph glyph-name="R" unicode="R" horiz-adv-x="889" 
d="M183 649v-249h312c127 0 222 18 222 125c0 106 -95 124 -222 124h-312zM95 0v727h420c116 0 286 -25 286 -203c0 -152 -141 -196 -229 -200l240 -324h-109l-234 322h-286v-322h-88z" />
    <glyph glyph-name="S" unicode="S" horiz-adv-x="832" 
d="M34 150l68 58c42 -56 112 -148 330 -148c112 0 265 32 265 145c0 221 -634 27 -634 322c0 155 143 218 341 218c192 0 310 -79 360 -149l-64 -52c-30 34 -100 127 -298 127c-146 0 -249 -38 -249 -130c0 -220 634 -10 634 -336c0 -122 -118 -223 -365 -223
c-238 0 -326 99 -388 168z" />
    <glyph glyph-name="T" unicode="T" horiz-adv-x="832" 
d="M372 0v649h-351v78h790v-78h-351v-649h-88z" />
    <glyph glyph-name="U" unicode="U" horiz-adv-x="944" 
d="M846 727v-428c0 -263 -205 -317 -374 -317s-374 54 -374 317v428h88v-428c0 -167 107 -243 286 -243s286 76 286 243v428h88z" />
    <glyph glyph-name="V" unicode="V" horiz-adv-x="832" 
d="M-3 727h98l321 -631l322 631h97l-376 -727h-86z" />
    <glyph glyph-name="W" unicode="W" horiz-adv-x="1000" 
d="M238 0l-227 727h93l172 -590h2l179 590h84l180 -587h2l174 587h92l-226 -727h-84l-177 593h-2l-178 -593h-84z" />
    <glyph glyph-name="X" unicode="X" horiz-adv-x="832" 
d="M6 0l354 377l-324 350h117l265 -289l268 289h117l-326 -349l349 -378h-116l-290 316l-295 -316h-119z" />
    <glyph glyph-name="Y" unicode="Y" horiz-adv-x="888" 
d="M400 0v294l-375 433h115l304 -355l304 355h115l-375 -433v-294h-88z" />
    <glyph glyph-name="Z" unicode="Z" horiz-adv-x="778" 
d="M18 0v52l588 597h-558v78h700v-55l-584 -594h596v-78h-742z" />
    <glyph glyph-name="bracketleft" unicode="[" horiz-adv-x="333" 
d="M78 -61v788h241v-44h-160v-700h160v-44h-241z" />
    <glyph glyph-name="backslash" unicode="\" horiz-adv-x="278" 
d="M219 -18l-222 763h70l222 -763h-70z" />
    <glyph glyph-name="bracketright" unicode="]" horiz-adv-x="333" 
d="M255 727v-788h-241v44h160v700h-160v44h241z" />
    <glyph glyph-name="asciicircum" unicode="^" horiz-adv-x="600" 
d="M490 274l-190 375l-190 -375h-66l231 453h50l231 -453h-66z" />
    <glyph glyph-name="underscore" unicode="_" horiz-adv-x="500" 
d="M0 -125v50h500v-50h-500z" />
    <glyph glyph-name="quoteleft" unicode="&#x2018;" horiz-adv-x="278" 
d="M195 727l-55 -152h46v-104h-103v109l63 147h49z" />
    <glyph glyph-name="a" unicode="a" 
d="M588 370v-289c0 -31 4 -53 9 -81h-81c-4 16 -10 42 -10 63c-76 -49 -161 -79 -261 -79c-86 0 -213 24 -213 159c0 181 271 188 475 212v20c0 71 -85 98 -168 98c-139 0 -188 -58 -214 -88l-61 42c30 37 87 112 269 112c119 0 255 -35 255 -169zM507 132v157
c-238 -23 -398 -45 -398 -146c0 -82 92 -93 132 -93c113 0 214 54 266 82z" />
    <glyph glyph-name="b" unicode="b" horiz-adv-x="722" 
d="M156 367v-203c50 -54 140 -111 227 -111c142 0 226 94 226 202c0 159 -116 215 -224 215c-113 0 -181 -53 -229 -103zM75 727h81v-276c70 53 126 88 234 88c224 0 300 -161 300 -282c0 -119 -84 -273 -290 -273c-116 0 -170 34 -248 98l-20 -82h-63c1 16 6 84 6 98v629z
" />
    <glyph glyph-name="c" unicode="c" 
d="M605 396l-70 -40c-23 37 -72 114 -203 114c-108 0 -219 -62 -219 -215c0 -115 98 -202 226 -202c85 0 158 25 213 120l70 -39c-46 -80 -122 -150 -285 -150c-188 0 -305 122 -305 279c0 180 138 276 300 276c158 0 233 -75 273 -143z" />
    <glyph glyph-name="d" unicode="d" horiz-adv-x="722" 
d="M566 164v203c-48 50 -116 103 -229 103c-108 0 -224 -56 -224 -215c0 -108 84 -202 226 -202c87 0 177 57 227 111zM566 727h81v-629c0 -14 5 -82 6 -98h-73l-10 82c-79 -64 -132 -98 -252 -98c-202 0 -286 154 -286 273c0 121 76 282 300 282c108 0 162 -35 234 -88v276
z" />
    <glyph glyph-name="e" unicode="e" 
d="M549 155l63 -46c-54 -57 -106 -125 -284 -125c-176 0 -296 120 -296 280c0 166 125 275 286 275c167 0 313 -87 309 -294h-514c8 -98 87 -192 223 -192c135 0 180 61 213 102zM116 314h423c-16 86 -90 156 -214 156c-119 0 -186 -60 -209 -156z" />
    <glyph glyph-name="f" unicode="f" horiz-adv-x="500" 
d="M155 0v443h-132v69h132v40c0 86 27 193 186 193c83 0 115 -9 136 -14v-72c-36 9 -71 17 -112 17c-112 0 -129 -53 -129 -130v-34h215v-69h-215v-443h-81z" />
    <glyph glyph-name="g" unicode="g" 
d="M634 543v-74c-60 0 -82 -13 -98 -22c13 -20 29 -45 29 -101c0 -66 -59 -179 -244 -179c-77 0 -103 7 -151 25c-25 -9 -37 -23 -37 -43c0 -35 20 -41 204 -43c197 -2 300 -17 300 -129c0 -140 -197 -161 -337 -161c-108 0 -280 20 -280 147c0 38 20 72 89 96
c-29 16 -57 31 -57 73c0 48 45 75 72 91c-43 39 -71 72 -71 132c0 133 120 184 250 184c89 0 138 -12 196 -49c43 35 65 53 135 53zM299 -118c136 0 260 21 260 87c0 46 -37 56 -184 61c-64 2 -127 4 -191 7c-55 -20 -86 -40 -86 -75c0 -61 107 -80 201 -80zM308 473
c-74 0 -177 -22 -177 -119c0 -103 122 -121 179 -121c79 0 177 26 177 121c0 101 -104 119 -179 119z" />
    <glyph glyph-name="h" unicode="h" 
d="M75 0v727h81v-280c55 48 127 92 220 92c65 0 216 -15 216 -194v-345h-81v329c2 124 -88 141 -145 141c-89 0 -163 -55 -210 -105v-365h-81z" />
    <glyph glyph-name="i" unicode="i" horiz-adv-x="223" 
d="M72 0v523h81v-523h-81zM65 727h93v-93h-93v93z" />
    <glyph glyph-name="j" unicode="j" horiz-adv-x="278" 
d="M-4 -176v70c11 -5 35 -9 49 -9c49 0 65 25 65 87v551h80v-569c0 -87 -34 -138 -134 -138c-27 0 -47 5 -60 8zM103 727h93v-93h-93v93z" />
    <glyph glyph-name="k" unicode="k" 
d="M75 0v727h81v-463l334 259h125l-246 -190l278 -333h-103l-237 287l-151 -116v-171h-81z" />
    <glyph glyph-name="l" unicode="l" horiz-adv-x="223" 
d="M71 0v727h81v-727h-81z" />
    <glyph glyph-name="m" unicode="m" horiz-adv-x="999" 
d="M71 0v523h78v-73c60 51 122 89 208 89c114 0 145 -55 166 -93c82 69 136 93 213 93c48 0 192 -10 192 -161v-378h-81v348c0 32 0 122 -115 122c-91 0 -158 -60 -192 -92v-378h-81v348c0 32 0 122 -113 122c-93 0 -160 -60 -194 -92v-378h-81z" />
    <glyph glyph-name="n" unicode="n" 
d="M75 0v523h81v-76c55 48 127 92 220 92c65 0 216 -15 216 -194v-345h-81v329c2 124 -88 141 -145 141c-89 0 -163 -55 -210 -105v-365h-81z" />
    <glyph glyph-name="o" unicode="o" 
d="M334 -16c-178 0 -302 102 -302 287c0 149 118 268 302 268s301 -119 301 -268c0 -185 -123 -287 -301 -287zM334 53c137 0 220 83 220 208c0 95 -62 209 -220 209s-221 -114 -221 -209c0 -125 84 -208 221 -208z" />
    <glyph glyph-name="p" unicode="p" horiz-adv-x="722" 
d="M156 359v-203c48 -50 116 -103 229 -103c108 0 224 56 224 215c0 108 -84 202 -226 202c-87 0 -177 -57 -227 -111zM75 -184v707h81v-79c75 61 128 95 248 95c202 0 286 -154 286 -273c0 -121 -76 -282 -300 -282c-108 0 -162 35 -234 88v-256h-81z" />
    <glyph glyph-name="q" unicode="q" horiz-adv-x="722" 
d="M566 156v203c-50 54 -140 111 -227 111c-142 0 -226 -94 -226 -202c0 -159 116 -215 224 -215c113 0 181 53 229 103zM647 523v-707h-81v256c-72 -53 -126 -88 -234 -88c-224 0 -300 161 -300 282c0 119 84 273 286 273c120 0 173 -34 250 -98l19 82h60z" />
    <glyph glyph-name="r" unicode="r" horiz-adv-x="444" 
d="M75 0v523h81v-109c47 53 113 125 218 125c18 0 33 -1 48 -4v-81c-10 1 -30 7 -65 7c-115 0 -198 -133 -201 -148v-313h-81z" />
    <glyph glyph-name="s" unicode="s" horiz-adv-x="611" 
d="M27 108l60 55c51 -64 127 -110 237 -110c86 0 164 27 164 89c0 148 -435 22 -435 238c0 119 122 159 232 159c176 0 240 -75 267 -113l-55 -50c-43 55 -110 94 -213 94c-96 0 -150 -30 -150 -85c0 -135 435 -13 435 -237c0 -120 -118 -164 -252 -164
c-116 0 -212 33 -290 124z" />
    <glyph glyph-name="t" unicode="t" horiz-adv-x="444" 
d="M412 523v-69h-208v-316c0 -57 25 -85 107 -85c39 0 71 7 115 16v-70c-58 -9 -99 -15 -132 -15c-171 0 -171 104 -171 146v324h-111v69h111v174h81v-174h208z" />
    <glyph glyph-name="u" unicode="u" 
d="M592 523v-523h-81v76c-55 -48 -127 -92 -220 -92c-65 0 -216 15 -216 194v345h81v-329c-2 -124 88 -141 145 -141c89 0 163 55 210 105v365h81z" />
    <glyph glyph-name="v" unicode="v" 
d="M293 0l-268 523h88l220 -435l222 435h87l-268 -523h-81z" />
    <glyph glyph-name="w" unicode="w" horiz-adv-x="944" 
d="M235 0l-220 523h83l174 -426l162 426h76l162 -427l172 427h85l-221 -523h-77l-159 424l-160 -424h-77z" />
    <glyph glyph-name="x" unicode="x" horiz-adv-x="611" 
d="M-1 0l253 275l-232 248h104l183 -194l177 194h104l-232 -248l256 -275h-106l-199 222l-202 -222h-106z" />
    <glyph glyph-name="y" unicode="y" 
d="M49 -168v74c26 -12 67 -16 94 -16c62 0 102 30 150 130l-269 503h88l224 -422l214 422h88l-306 -590c-33 -64 -89 -117 -183 -117c-34 0 -67 6 -100 16z" />
    <glyph glyph-name="z" unicode="z" horiz-adv-x="611" 
d="M564 523l-2 -50l-396 -404h407v-69h-535v51l397 403h-376v69h505z" />
    <glyph glyph-name="braceleft" unicode="{" horiz-adv-x="333" 
d="M285 -61h-75c-69 0 -102 30 -102 101v157c0 95 -14 114 -60 114v44c46 0 60 19 60 114v157c0 71 33 101 102 101h75v-44h-33c-42 0 -63 -8 -63 -53v-189c0 -71 -25 -98 -60 -107v-2c35 -9 60 -36 60 -107v-189c0 -45 21 -53 63 -53h33v-44z" />
    <glyph glyph-name="bar" unicode="|" horiz-adv-x="222" 
d="M81 -250v1000h60v-1000h-60z" />
    <glyph glyph-name="braceright" unicode="}" horiz-adv-x="333" 
d="M48 727h75c69 0 102 -30 102 -101v-157c0 -95 14 -114 60 -114v-44c-46 0 -60 -19 -60 -114v-157c0 -71 -33 -101 -102 -101h-75v44h33c42 0 63 8 63 53v189c0 71 25 98 60 107v2c-35 9 -60 36 -60 107v189c0 45 -21 53 -63 53h-33v44z" />
    <glyph glyph-name="asciitilde" unicode="~" horiz-adv-x="600" 
d="M495 321l36 -46c-30 -42 -63 -86 -125 -86c-37 0 -69 15 -102 33c-32 18 -69 35 -107 35c-47 0 -72 -37 -92 -72l-36 46c22 42 58 86 125 86c34 0 73 -13 111 -32c36 -18 75 -36 102 -36c40 0 65 37 88 72z" />
    <glyph glyph-name="exclamdown" unicode="&#xa1;" horiz-adv-x="333" 
d="M218 523v-116h-103v116h103zM199 307l24 -511h-113l21 511h68z" />
    <glyph glyph-name="cent" unicode="&#xa2;" horiz-adv-x="722" 
d="M252 99l140 386c-10 1 -18 1 -27 1c-108 0 -219 -62 -219 -215c0 -75 44 -137 106 -172zM417 552l45 124h63l-49 -135c88 -26 136 -79 165 -129l-70 -40c-17 28 -49 78 -120 101l-144 -396c20 -5 42 -8 65 -8c88 0 161 25 216 120l70 -39c-46 -80 -122 -150 -288 -150
c-31 0 -60 3 -88 10l-49 -135h-64l57 154c-96 35 -161 138 -161 250c0 180 138 276 300 276c19 0 36 -1 52 -3z" />
    <glyph glyph-name="sterling" unicode="&#xa3;" horiz-adv-x="722" 
d="M25 -18v83c135 30 130 146 130 261h-129v65h124c-7 41 -10 90 -10 146c0 122 114 212 267 208c116 -4 224 -47 272 -188l-75 -31c-20 68 -72 145 -208 145c-128 0 -178 -64 -178 -163c0 -38 7 -76 13 -117h179v-65h-174c0 -83 -5 -143 -32 -203c71 -36 186 -67 261 -67
c98 0 142 40 157 131l75 -15c-19 -115 -75 -190 -240 -190c-107 0 -232 52 -286 76c-33 -36 -69 -64 -146 -76z" />
    <glyph glyph-name="fraction" unicode="&#x2044;" horiz-adv-x="167" 
d="M-112 -18h-58l450 763h57z" />
    <glyph glyph-name="yen" unicode="&#xa5;" horiz-adv-x="722" 
d="M317 0v156h-177v62h177v74h-177v62h136l-256 373h115l226 -355l226 355h115l-256 -373h136v-62h-177v-74h177v-62h-177v-156h-88z" />
    <glyph glyph-name="florin" unicode="&#x192;" horiz-adv-x="722" 
d="M668 737l-12 -70c-37 8 -60 9 -85 9c-53 0 -101 -24 -127 -150l-12 -60h185v-69h-199l-65 -331c-35 -199 -102 -250 -210 -250c-54 0 -87 5 -109 9l9 70c31 -6 54 -10 78 -10c114 0 124 54 146 167l67 345h-175v69h189l12 66c35 181 133 213 207 213c33 0 65 -4 101 -8z
" />
    <glyph glyph-name="section" unicode="&#xa7;" horiz-adv-x="500" 
d="M408 640l-59 -38c-19 30 -46 74 -108 74c-36 0 -69 -19 -69 -61c0 -28 1 -45 110 -133c133 -107 189 -173 189 -242c0 -81 -68 -109 -118 -112c21 -18 59 -50 59 -110c0 -57 -38 -144 -153 -144c-104 0 -151 71 -177 113l59 38c24 -40 57 -82 116 -82c39 0 81 21 81 71
c0 49 -55 84 -148 161c-123 102 -161 150 -161 207c0 73 60 115 98 115c10 0 18 0 27 -2l2 2c-38 38 -65 59 -65 117c0 57 37 131 145 131c105 0 152 -73 172 -105zM397 236c0 34 -30 74 -113 147c-52 47 -78 67 -116 67c-34 0 -65 -21 -65 -61c0 -30 36 -71 92 -119
s101 -92 142 -92c40 0 60 35 60 58z" />
    <glyph glyph-name="currency" unicode="&#xa4;" horiz-adv-x="722" 
d="M113 153l54 56c-37 44 -54 100 -54 154s17 110 54 154l-54 56l38 38l55 -55c45 37 102 55 155 55s110 -18 155 -55l55 55l38 -38l-54 -56c37 -44 54 -100 54 -154s-17 -110 -54 -154l54 -56l-38 -38l-55 55c-45 -37 -102 -55 -155 -55s-110 18 -155 55l-55 -55zM173 363
c0 -104 84 -188 188 -188s188 84 188 188s-84 188 -188 188s-188 -84 -188 -188z" />
    <glyph glyph-name="quotesingle" unicode="'" horiz-adv-x="278" 
d="M106 471v256h66v-256h-66z" />
    <glyph glyph-name="quotedblleft" unicode="&#x201c;" horiz-adv-x="500" 
d="M412 727l-55 -152h41v-104h-98v109l63 147h49zM200 727l-55 -152h41v-104h-98v109l63 147h49z" />
    <glyph glyph-name="guillemotleft" unicode="&#xab;" horiz-adv-x="500" 
d="M184 101l-139 166l139 166h82l-137 -166l137 -166h-82zM373 101l-139 166l139 166h82l-137 -166l137 -166h-82z" />
    <glyph glyph-name="guilsinglleft" unicode="&#x2039;" horiz-adv-x="333" 
d="M195 101l-139 166l139 166h82l-137 -166l137 -166h-82z" />
    <glyph glyph-name="guilsinglright" unicode="&#x203a;" horiz-adv-x="333" 
d="M138 433l139 -166l-139 -166h-82l137 166l-137 166h82z" />
    <glyph glyph-name="fi" unicode="&#xfb01;" horiz-adv-x="722" 
d="M145 0v443h-132v69h132v40c0 86 27 193 186 193c83 0 115 -9 136 -14v-72c-36 9 -71 17 -112 17c-112 0 -129 -53 -129 -130v-34h215v-69h-215v-443h-81zM561 0v523h81v-523h-81zM554 727h93v-93h-93v93z" />
    <glyph glyph-name="fl" unicode="&#xfb02;" horiz-adv-x="722" 
d="M145 0v443h-132v69h132v40c0 86 27 193 186 193c83 0 115 -9 136 -14v-72c-36 9 -71 17 -112 17c-112 0 -129 -53 -129 -130v-34h215v-69h-215v-443h-81zM561 0v727h81v-727h-81z" />
    <glyph glyph-name="endash" unicode="&#x2013;" horiz-adv-x="500" 
d="M0 240v54h500v-54h-500z" />
    <glyph glyph-name="dagger" unicode="&#x2020;" horiz-adv-x="500" 
d="M36 455v83l183 -18l10 9l-24 216h90l-24 -216l10 -9l183 18v-83l-183 21l-10 -8l26 -170c-11 -76 -25 -330 -25 -435h-44c0 105 -14 359 -25 435l26 170l-10 8z" />
    <glyph glyph-name="daggerdbl" unicode="&#x2021;" horiz-adv-x="500" 
d="M36 68v83l183 -21l10 8l-24 175l24 155l-10 8l-183 -21v83l183 -18l10 9l-24 216h90l-24 -216l10 -9l183 18v-83l-183 21l-10 -8l24 -155l-24 -175l10 -8l183 21v-83l-183 18l-10 -9l24 -216h-90l24 216l-10 9z" />
    <glyph glyph-name="periodcentered" unicode="&#xb7;" horiz-adv-x="361" 
d="M107 320c0 33 27 60 60 60s60 -27 60 -60s-27 -60 -60 -60s-60 27 -60 60z" />
    <glyph glyph-name="paragraph" unicode="&#xb6;" horiz-adv-x="600" 
d="M244 -108v449c-112 2 -202 81 -202 190c0 126 83 196 223 196h216v-835h-60v791h-117v-791h-60z" />
    <glyph glyph-name="bullet" unicode="&#x2022;" horiz-adv-x="500" 
d="M68 364c0 100 82 181 182 181s182 -81 182 -181c0 -101 -82 -182 -182 -182s-182 81 -182 182z" />
    <glyph glyph-name="quotesinglbase" unicode="&#x201a;" horiz-adv-x="278" 
d="M83 -152l55 152h-46v104h103v-109l-63 -147h-49z" />
    <glyph glyph-name="quotedblbase" unicode="&#x201e;" horiz-adv-x="500" 
d="M302 -152l52 152h-40v104h98v-104l-62 -152h-48zM88 -152l52 152h-40v104h98v-104l-62 -152h-48z" />
    <glyph glyph-name="quotedblright" unicode="&#x201d;" horiz-adv-x="500" 
d="M300 471l55 152h-41v104h98v-109l-63 -147h-49zM88 471l55 152h-41v104h98v-109l-63 -147h-49z" />
    <glyph glyph-name="guillemotright" unicode="&#xbb;" horiz-adv-x="500" 
d="M316 433l139 -166l-139 -166h-82l137 166l-137 166h82zM127 433l139 -166l-139 -166h-82l137 166l-137 166h82z" />
    <glyph glyph-name="ellipsis" unicode="&#x2026;" horiz-adv-x="1000" 
d="M116 0v116h103v-116h-103zM449 0v116h103v-116h-103zM782 0v116h103v-116h-103z" />
    <glyph glyph-name="perthousand" unicode="&#x2030;" horiz-adv-x="1000" 
d="M70 595c0 -50 40 -90 90 -90s90 40 90 90s-40 90 -90 90s-90 -40 -90 -90zM10 595c0 83 67 150 150 150s150 -67 150 -150s-67 -150 -150 -150s-150 67 -150 150zM66 -18l424 763h60l-424 -763h-60zM384 168c0 -50 40 -90 90 -90s90 40 90 90s-40 90 -90 90
s-90 -40 -90 -90zM324 168c0 83 67 150 150 150s150 -67 150 -150s-67 -150 -150 -150s-150 67 -150 150zM690 168c0 83 67 150 150 150s150 -67 150 -150s-67 -150 -150 -150s-150 67 -150 150zM750 168c0 -50 40 -90 90 -90s90 40 90 90s-40 90 -90 90s-90 -40 -90 -90z
" />
    <glyph glyph-name="questiondown" unicode="&#xbf;" horiz-adv-x="611" 
d="M294 304h74c3 -118 -43 -155 -148 -217c-61 -34 -99 -57 -99 -122c0 -67 67 -113 173 -113c94 0 171 36 219 118l71 -41c-63 -94 -132 -151 -291 -151c-118 0 -256 50 -256 181c0 114 52 140 130 189c103 54 124 71 127 156zM279 407v116h103v-116h-103z" />
    <glyph glyph-name="grave" unicode="`" horiz-adv-x="222" 
d="M76 740l107 -142h-73l-148 142h114z" />
    <glyph glyph-name="acute" unicode="&#xb4;" horiz-adv-x="222" 
d="M39 598l107 142h114l-148 -142h-73z" />
    <glyph glyph-name="circumflex" unicode="&#x2c6;" horiz-adv-x="222" 
d="M-46 598l112 142h92l110 -142h-84l-72 94l-72 -94h-86z" />
    <glyph glyph-name="tilde" unicode="&#x2dc;" horiz-adv-x="222" 
d="M219 723h49c-6 -31 -21 -108 -93 -108c-30 0 -53 10 -73 20c-20 9 -37 19 -56 19c-18 0 -45 -8 -45 -46h-47c8 32 14 107 95 107c27 0 50 -9 70 -18c21 -10 40 -19 57 -19c23 0 42 16 43 45z" />
    <glyph glyph-name="macron" unicode="&#xaf;" horiz-adv-x="222" 
d="M257 690v-58h-292v58h292z" />
    <glyph glyph-name="breve" unicode="&#x2d8;" horiz-adv-x="222" 
d="M-35 738h54c1 -27 11 -46 28 -59c16 -12 39 -18 64 -18c50 0 91 23 92 77h54c-2 -50 -21 -135 -146 -135c-124 0 -144 85 -146 135z" />
    <glyph glyph-name="dotaccent" unicode="&#x2d9;" horiz-adv-x="222" 
d="M66 625v102h90v-102h-90z" />
    <glyph glyph-name="dieresis" unicode="&#xa8;" horiz-adv-x="222" 
d="M-25 625v102h90v-102h-90zM157 625v102h90v-102h-90z" />
    <glyph glyph-name="ring" unicode="&#x2da;" horiz-adv-x="222" 
d="M111 600c-67 0 -120 55 -120 120c0 66 54 120 120 120s120 -54 120 -120c0 -65 -53 -120 -120 -120zM40 720c0 -37 32 -71 71 -71c38 0 71 33 71 71s-33 71 -71 71c-39 0 -71 -34 -71 -71z" />
    <glyph glyph-name="cedilla" unicode="&#xb8;" horiz-adv-x="222" 
d="M39 -86l64 86h47l-46 -60l2 -2c9 3 16 4 29 4c69 0 87 -39 87 -77c0 -40 -38 -95 -124 -95c-29 0 -62 9 -93 20l17 47c19 -7 39 -15 65 -15c29 0 57 11 57 41c0 27 -22 40 -42 40c-17 0 -28 -3 -45 -8z" />
    <glyph glyph-name="hungarumlaut" unicode="&#x2dd;" horiz-adv-x="222" 
d="M-47 598l107 142h114l-148 -142h-73zM126 598l107 142h114l-148 -142h-73z" />
    <glyph glyph-name="ogonek" unicode="&#x2db;" horiz-adv-x="222" 
d="M250 -168l17 -40c-14 -6 -54 -22 -96 -22c-74 0 -118 40 -118 92c0 54 30 96 109 138h67c-82 -54 -100 -87 -100 -128c0 -43 37 -55 56 -55c25 0 40 5 65 15z" />
    <glyph glyph-name="caron" unicode="&#x2c7;" horiz-adv-x="222" 
d="M268 740l-112 -142h-92l-110 142h84l72 -94l72 94h86z" />
    <glyph glyph-name="emdash" unicode="&#x2014;" horiz-adv-x="1000" 
d="M1000 240h-1000v54h1000v-54z" />
    <glyph glyph-name="AE" unicode="&#xc6;" horiz-adv-x="1000" 
d="M481 667l-225 -382h235v382h-10zM-13 0l432 727h547v-78h-387v-232h301v-78h-301v-261h398v-78h-486v207h-279l-123 -207h-102z" />
    <glyph glyph-name="ordfeminine" unicode="&#xaa;" horiz-adv-x="434" 
d="M32 508c0 110 187 117 302 128v11c0 38 -48 54 -102 54c-91 0 -123 -36 -134 -51l-45 28c19 22 56 67 175 67c77 0 166 -21 166 -101v-173c0 -19 2 -32 5 -49h-52c-2 10 -6 25 -6 38c-50 -30 -105 -48 -170 -48c-56 0 -139 15 -139 96zM334 501v91
c-141 -13 -246 -28 -246 -84c0 -43 55 -52 80 -52c75 0 140 34 166 45z" />
    <glyph glyph-name="Lslash" unicode="&#x141;" horiz-adv-x="778" 
d="M95 0v279l-89 -60v69l89 60v379h88v-320l259 173v-69l-259 -173v-260h574v-78h-662z" />
    <glyph glyph-name="Oslash" unicode="&#xd8;" horiz-adv-x="944" 
d="M219 152l462 461c-54 37 -124 58 -209 58c-211 0 -336 -134 -336 -296c0 -99 32 -173 83 -223zM731 571l-460 -460c56 -35 127 -51 201 -51c177 0 336 94 336 315c0 75 -27 145 -77 196zM-4 -71l163 163c-69 62 -113 151 -113 267c0 242 179 386 426 386
c104 0 196 -26 267 -74l102 102h92l-143 -143c69 -67 108 -158 108 -271c0 -258 -216 -377 -426 -377c-93 0 -187 23 -261 70l-123 -123h-92z" />
    <glyph glyph-name="OE" unicode="&#x152;" horiz-adv-x="1000" 
d="M988 78v-78h-466c-27 0 -62 -2 -97 -4s-71 -4 -99 -4c-242 0 -323 176 -323 366c0 168 77 377 317 377c49 0 89 -2 129 -4s80 -4 131 -4h395v-78h-382v-234h296v-78h-296v-259h395zM505 200v315c0 110 -12 146 -163 146c-190 0 -249 -148 -249 -305
c0 -178 68 -290 259 -290c141 0 153 53 153 134z" />
    <glyph glyph-name="ordmasculine" unicode="&#xba;" horiz-adv-x="434" 
d="M217 412c-116 0 -196 62 -196 173c0 89 76 160 196 160c119 0 196 -71 196 -160c0 -111 -80 -173 -196 -173zM217 458c89 0 140 50 140 121c0 54 -40 122 -140 122s-140 -68 -140 -122c0 -71 54 -121 140 -121z" />
    <glyph glyph-name="ae" unicode="&#xe6;" horiz-adv-x="1000" 
d="M968 246h-449c0 -129 98 -193 190 -193c99 0 142 52 185 104l62 -46c-47 -58 -106 -127 -263 -127c-99 0 -157 50 -205 95c-50 -40 -142 -95 -267 -95c-155 0 -189 93 -189 155c0 169 216 197 409 216v23c0 62 -52 92 -140 92c-98 0 -152 -53 -171 -83l-65 44
c17 24 85 108 236 108c136 0 175 -54 201 -90c34 37 82 90 201 90c140 0 265 -88 265 -293zM441 127v163c-227 -18 -328 -73 -328 -153c0 -52 45 -84 113 -84c77 0 158 36 215 74zM522 315h362c0 37 -49 155 -184 155c-135 2 -178 -123 -178 -155z" />
    <glyph glyph-name="dotlessi" unicode="&#x131;" horiz-adv-x="223" 
d="M71 0v523h81v-523h-81z" />
    <glyph glyph-name="lslash" unicode="&#x142;" horiz-adv-x="240" 
d="M-17 228v69l97 70v360h81v-301l97 70v-69l-97 -70v-357h-81v298z" />
    <glyph glyph-name="oslash" unicode="&#xf8;" 
d="M502 402l-296 -317c34 -21 78 -32 128 -32c137 0 220 83 220 208c0 48 -15 100 -52 141zM161 123l296 315c-31 20 -72 32 -123 32c-158 0 -221 -114 -221 -209c0 -55 16 -102 48 -138zM-21 -71l129 137c-48 48 -76 117 -76 205c0 149 118 268 302 268
c70 0 130 -17 176 -45l90 96h78l-123 -131c51 -48 80 -114 80 -188c0 -185 -123 -287 -301 -287c-69 0 -130 15 -180 46l-94 -101h-81z" />
    <glyph glyph-name="oe" unicode="&#x153;" horiz-adv-x="1000" 
d="M972 246h-419c4 -153 112 -193 173 -193c96 0 143 68 168 102l65 -46c-57 -71 -110 -125 -246 -125c-110 0 -165 62 -202 120c-35 -58 -100 -120 -237 -120c-144 0 -246 100 -246 281c0 164 95 274 254 274c144 0 201 -81 227 -118c22 32 80 118 204 118
c193 0 266 -154 259 -293zM290 53c127 0 182 89 182 205c0 171 -102 212 -186 212c-80 0 -177 -39 -177 -212c0 -116 63 -205 181 -205zM555 315h333c-10 106 -88 155 -168 155c-110 0 -162 -81 -165 -155z" />
    <glyph glyph-name="germandbls" unicode="&#xdf;" 
d="M315 363v69c92 0 176 16 176 127c0 76 -70 117 -174 117c-121 0 -161 -78 -161 -186v-490h-81v510c0 156 93 235 240 235c190 0 257 -98 257 -194c0 -90 -61 -133 -99 -140v-2c95 -20 159 -85 159 -208c0 -89 -44 -219 -243 -219c-53 0 -97 12 -148 40l30 65
c30 -16 70 -36 124 -36c123 0 156 80 155 152c-1 119 -73 160 -209 160h-26z" />
    <glyph glyph-name="onesuperior" unicode="&#xb9;" horiz-adv-x="469" 
d="M122 298v56h91v319l-99 -7v48c39 5 92 21 119 31h40v-391h91v-56h-242z" />
    <glyph glyph-name="logicalnot" unicode="&#xac;" horiz-adv-x="600" 
d="M493 108v212h-446v60h506v-272h-60z" />
    <glyph glyph-name="mu" unicode="&#xb5;" 
d="M511 0v76c-55 -48 -127 -92 -213 -92c-34 0 -94 0 -142 41v-209h-81v707h81v-329c-2 -124 88 -141 145 -141c89 0 163 55 210 105v365h81v-523h-81z" />
    <glyph glyph-name="trademark" unicode="&#x2122;" horiz-adv-x="1000" 
d="M162 315v358h-130v54h320v-54h-130v-358h-60zM426 315v412h88l130 -329l130 329h88v-412h-60v328h-2l-132 -328h-48l-132 328h-2v-328h-60z" />
    <glyph glyph-name="Eth" unicode="&#xd0;" horiz-adv-x="889" 
d="M95 0v354h-74v54h74v319h359c226 0 389 -119 389 -357c0 -296 -225 -370 -417 -370h-331zM183 649v-241h282v-54h-282v-276h257c72 0 313 9 313 295c0 213 -151 276 -299 276h-271z" />
    <glyph glyph-name="onehalf" unicode="&#xbd;" horiz-adv-x="1083" 
d="M299 -18h-58l450 763h57zM122 298v56h91v319l-99 -7v48c39 5 92 21 119 31h40v-391h91v-56h-242zM982 56v-56h-408v52c3 15 39 78 156 132c112 51 187 57 187 133c0 48 -49 74 -132 74c-105 0 -141 -57 -153 -93l-53 33c16 44 74 116 206 116c134 0 197 -52 197 -128
c0 -92 -77 -121 -153 -152c-87 -35 -146 -60 -185 -111h338z" />
    <glyph glyph-name="plusminus" unicode="&#xb1;" horiz-adv-x="600" 
d="M270 334v172h60v-172h223v-60h-223v-172h-60v172h-223v60h223zM47 0v60h506v-60h-506z" />
    <glyph glyph-name="Thorn" unicode="&#xde;" horiz-adv-x="832" 
d="M95 0v727h88v-123h338c147 0 281 -42 281 -208c0 -167 -134 -209 -281 -209h-338v-187h-88zM183 526v-261h315c146 0 220 31 220 130c0 100 -74 131 -220 131h-315z" />
    <glyph glyph-name="onequarter" unicode="&#xbc;" horiz-adv-x="1083" 
d="M882 160v233l-228 -233h228zM942 108v-108h-60v108h-303v43l288 296h75v-287h77v-52h-77zM343 -18h-58l450 763h57zM122 298v56h91v319l-99 -7v48c39 5 92 21 119 31h40v-391h91v-56h-242z" />
    <glyph glyph-name="divide" unicode="&#xf7;" horiz-adv-x="600" 
d="M240 47c0 33 27 60 60 60s60 -27 60 -60s-27 -60 -60 -60s-60 27 -60 60zM47 223v60h506v-60h-506zM240 459c0 33 27 60 60 60s60 -27 60 -60s-27 -60 -60 -60s-60 27 -60 60z" />
    <glyph glyph-name="brokenbar" unicode="&#xa6;" horiz-adv-x="222" 
d="M81 -175v350h60v-350h-60zM81 325v350h60v-350h-60z" />
    <glyph glyph-name="degree" unicode="&#xb0;" horiz-adv-x="400" 
d="M47 592c0 84 69 153 153 153s153 -69 153 -153s-69 -153 -153 -153s-153 69 -153 153zM101 592c0 -55 44 -99 99 -99s99 44 99 99s-44 99 -99 99s-99 -44 -99 -99z" />
    <glyph glyph-name="thorn" unicode="&#xfe;" horiz-adv-x="722" 
d="M156 359v-203c48 -50 116 -103 229 -103c108 0 224 56 224 215c0 108 -84 202 -226 202c-87 0 -177 -57 -227 -111zM75 -184v911h81v-283c75 61 128 95 248 95c202 0 286 -154 286 -273c0 -121 -76 -282 -300 -282c-108 0 -162 35 -234 88v-256h-81z" />
    <glyph glyph-name="threequarters" unicode="&#xbe;" horiz-adv-x="1083" 
d="M383 -18h-58l450 763h57zM32 369l46 45c41 -48 97 -71 162 -71c69 0 147 25 147 80c0 51 -49 78 -157 78h-75v56h68c83 0 148 15 148 65c0 38 -57 67 -128 67c-70 0 -121 -27 -149 -60l-44 45c38 36 86 71 201 71c78 0 185 -26 185 -115c0 -66 -50 -87 -79 -98v-2
c44 -12 95 -36 95 -105c0 -104 -101 -138 -208 -138c-123 0 -177 49 -212 82zM882 160v233l-228 -233h228zM942 108v-108h-60v108h-303v43l288 296h75v-287h77v-52h-77z" />
    <glyph glyph-name="twosuperior" unicode="&#xb2;" horiz-adv-x="469" 
d="M436 354v-56h-408v52c3 15 39 78 156 132c112 51 187 57 187 133c0 48 -49 74 -132 74c-105 0 -141 -57 -153 -93l-53 33c16 44 74 116 206 116c134 0 197 -52 197 -128c0 -92 -77 -121 -153 -152c-87 -35 -146 -60 -185 -111h338z" />
    <glyph glyph-name="registered" unicode="&#xae;" horiz-adv-x="801" 
d="M313 537v-144h99c60 0 108 7 108 73c0 64 -53 71 -108 71h-99zM529 137l-133 202h-83v-202h-60v454h180c102 0 147 -44 147 -126c0 -79 -53 -116 -114 -126l137 -202h-74zM79 363c0 -178 143 -321 321 -321s322 143 322 321s-144 322 -322 322s-321 -144 -321 -322z
M19 364c0 211 170 381 381 381s382 -170 382 -381s-171 -382 -382 -382s-381 171 -381 382z" />
    <glyph glyph-name="minus" unicode="&#x2212;" horiz-adv-x="600" 
d="M47 223v60h506v-60h-506z" />
    <glyph glyph-name="eth" unicode="&#xf0;" 
d="M554 261c0 95 -62 209 -221 209c-158 0 -220 -114 -220 -209c0 -125 83 -208 220 -208c138 0 221 83 221 208zM199 565l-40 36l113 53c-34 17 -70 30 -105 40l46 51c46 -13 92 -32 135 -55l117 55l41 -36l-106 -50c134 -88 235 -221 235 -388c0 -185 -123 -287 -302 -287
c-178 0 -301 102 -301 287c0 149 117 268 289 268c53 0 110 -13 165 -49h2c-47 56 -102 100 -160 135z" />
    <glyph glyph-name="multiply" unicode="&#xd7;" horiz-adv-x="600" 
d="M300 296l186 187l44 -44l-187 -186l187 -187l-44 -43l-186 187l-186 -187l-44 43l187 187l-187 186l44 44z" />
    <glyph glyph-name="threesuperior" unicode="&#xb3;" horiz-adv-x="469" 
d="M12 369l46 45c41 -48 97 -71 162 -71c69 0 147 25 147 80c0 51 -49 78 -157 78h-75v56h68c83 0 148 15 148 65c0 38 -57 67 -128 67c-70 0 -121 -27 -149 -60l-44 45c38 36 86 71 201 71c78 0 185 -26 185 -115c0 -66 -50 -87 -79 -98v-2c44 -12 95 -36 95 -105
c0 -104 -101 -138 -208 -138c-123 0 -177 49 -212 82z" />
    <glyph glyph-name="copyright" unicode="&#xa9;" horiz-adv-x="801" 
d="M544 285h67c-24 -102 -94 -169 -199 -169c-145 0 -236 106 -236 247c0 146 85 248 233 248c105 0 187 -57 202 -164h-67c-13 56 -59 104 -130 104c-111 0 -172 -84 -172 -188c0 -94 66 -187 168 -187c70 0 122 50 134 109zM19 364c0 211 170 381 381 381
s382 -170 382 -381s-171 -382 -382 -382s-381 171 -381 382zM79 363c0 -178 143 -321 321 -321s322 143 322 321s-144 322 -322 322s-321 -144 -321 -322z" />
    <glyph glyph-name="Aacute" unicode="&#xc1;" horiz-adv-x="889" 
d="M250 267h390l-195 391zM17 0l374 727h108l373 -727h-99l-94 189h-469l-95 -189h-98zM373 775l107 142h114l-148 -142h-73z" />
    <glyph glyph-name="Acircumflex" unicode="&#xc2;" horiz-adv-x="889" 
d="M250 267h390l-195 391zM17 0l374 727h108l373 -727h-99l-94 189h-469l-95 -189h-98zM288 775l112 142h92l110 -142h-84l-72 94l-72 -94h-86z" />
    <glyph glyph-name="Adieresis" unicode="&#xc4;" horiz-adv-x="889" 
d="M250 267h390l-195 391zM17 0l374 727h108l373 -727h-99l-94 189h-469l-95 -189h-98zM309 802v102h90v-102h-90zM491 802v102h90v-102h-90z" />
    <glyph glyph-name="Agrave" unicode="&#xc0;" horiz-adv-x="889" 
d="M250 267h390l-195 391zM17 0l374 727h108l373 -727h-99l-94 189h-469l-95 -189h-98zM410 917l107 -142h-73l-148 142h114z" />
    <glyph glyph-name="Aring" unicode="&#xc5;" horiz-adv-x="889" 
d="M250 267h390l-195 391zM17 0l374 727h108l373 -727h-99l-94 189h-469l-95 -189h-98zM445 777c-67 0 -120 55 -120 120c0 66 54 120 120 120s120 -54 120 -120c0 -65 -53 -120 -120 -120zM374 897c0 -37 32 -71 71 -71c38 0 71 33 71 71s-33 71 -71 71
c-39 0 -71 -34 -71 -71z" />
    <glyph glyph-name="Atilde" unicode="&#xc3;" horiz-adv-x="889" 
d="M250 267h390l-195 391zM17 0l374 727h108l373 -727h-99l-94 189h-469l-95 -189h-98zM553 900h49c-6 -31 -21 -108 -93 -108c-30 0 -53 10 -73 20c-20 9 -37 19 -56 19c-18 0 -45 -8 -45 -46h-47c8 32 14 107 95 107c27 0 50 -9 70 -18c21 -10 40 -19 57 -19
c23 0 42 16 43 45z" />
    <glyph glyph-name="Ccedilla" unicode="&#xc7;" horiz-adv-x="889" 
d="M348 -210l17 47c19 -7 39 -15 65 -15c29 0 57 11 57 41c0 27 -22 40 -42 40c-17 0 -28 -3 -45 -8l-18 19l51 69c-263 10 -387 175 -387 379c0 250 169 383 414 383c156 0 315 -60 380 -208l-76 -35c-51 119 -164 169 -303 169c-208 0 -325 -113 -325 -320
c0 -167 113 -291 333 -291c144 0 244 60 304 171l78 -38c-75 -146 -204 -207 -372 -210l-32 -43l2 -2c9 3 16 4 29 4c69 0 87 -39 87 -77c0 -40 -38 -95 -124 -95c-29 0 -62 9 -93 20z" />
    <glyph glyph-name="Eacute" unicode="&#xc9;" horiz-adv-x="778" 
d="M95 0v727h648v-78h-560v-232h468v-78h-468v-261h572v-78h-660zM317 775l107 142h114l-148 -142h-73z" />
    <glyph glyph-name="Ecircumflex" unicode="&#xca;" horiz-adv-x="778" 
d="M95 0v727h648v-78h-560v-232h468v-78h-468v-261h572v-78h-660zM232 775l112 142h92l110 -142h-84l-72 94l-72 -94h-86z" />
    <glyph glyph-name="Edieresis" unicode="&#xcb;" horiz-adv-x="778" 
d="M95 0v727h648v-78h-560v-232h468v-78h-468v-261h572v-78h-660zM253 802v102h90v-102h-90zM435 802v102h90v-102h-90z" />
    <glyph glyph-name="Egrave" unicode="&#xc8;" horiz-adv-x="778" 
d="M95 0v727h648v-78h-560v-232h468v-78h-468v-261h572v-78h-660zM354 917l107 -142h-73l-148 142h114z" />
    <glyph glyph-name="Iacute" unicode="&#xcd;" horiz-adv-x="278" 
d="M95 0v727h88v-727h-88zM67 775l107 142h114l-148 -142h-73z" />
    <glyph glyph-name="Icircumflex" unicode="&#xce;" horiz-adv-x="278" 
d="M95 0v727h88v-727h-88zM-18 775l112 142h92l110 -142h-84l-72 94l-72 -94h-86z" />
    <glyph glyph-name="Idieresis" unicode="&#xcf;" horiz-adv-x="278" 
d="M95 0v727h88v-727h-88zM3 802v102h90v-102h-90zM185 802v102h90v-102h-90z" />
    <glyph glyph-name="Igrave" unicode="&#xcc;" horiz-adv-x="278" 
d="M95 0v727h88v-727h-88zM104 917l107 -142h-73l-148 142h114z" />
    <glyph glyph-name="Ntilde" unicode="&#xd1;" horiz-adv-x="944" 
d="M95 0v727h125l541 -598v598h88v-727h-88l-582 649v-649h-84zM580 900h49c-6 -31 -21 -108 -93 -108c-30 0 -53 10 -73 20c-20 9 -37 19 -56 19c-18 0 -45 -8 -45 -46h-47c8 32 14 107 95 107c27 0 50 -9 70 -18c21 -10 40 -19 57 -19c23 0 42 16 43 45z" />
    <glyph glyph-name="Oacute" unicode="&#xd3;" horiz-adv-x="944" 
d="M46 359c0 242 179 386 426 386s426 -144 426 -386c0 -258 -216 -377 -426 -377s-426 119 -426 377zM136 375c0 -221 157 -315 336 -315c177 0 336 94 336 315c0 162 -125 296 -336 296s-336 -134 -336 -296zM400 775l107 142h114l-148 -142h-73z" />
    <glyph glyph-name="Ocircumflex" unicode="&#xd4;" horiz-adv-x="944" 
d="M46 359c0 242 179 386 426 386s426 -144 426 -386c0 -258 -216 -377 -426 -377s-426 119 -426 377zM136 375c0 -221 157 -315 336 -315c177 0 336 94 336 315c0 162 -125 296 -336 296s-336 -134 -336 -296zM315 775l112 142h92l110 -142h-84l-72 94l-72 -94h-86z" />
    <glyph glyph-name="Odieresis" unicode="&#xd6;" horiz-adv-x="944" 
d="M46 359c0 242 179 386 426 386s426 -144 426 -386c0 -258 -216 -377 -426 -377s-426 119 -426 377zM136 375c0 -221 157 -315 336 -315c177 0 336 94 336 315c0 162 -125 296 -336 296s-336 -134 -336 -296zM336 802v102h90v-102h-90zM518 802v102h90v-102h-90z" />
    <glyph glyph-name="Ograve" unicode="&#xd2;" horiz-adv-x="944" 
d="M46 359c0 242 179 386 426 386s426 -144 426 -386c0 -258 -216 -377 -426 -377s-426 119 -426 377zM136 375c0 -221 157 -315 336 -315c177 0 336 94 336 315c0 162 -125 296 -336 296s-336 -134 -336 -296zM437 917l107 -142h-73l-148 142h114z" />
    <glyph glyph-name="Otilde" unicode="&#xd5;" horiz-adv-x="944" 
d="M46 359c0 242 179 386 426 386s426 -144 426 -386c0 -258 -216 -377 -426 -377s-426 119 -426 377zM136 375c0 -221 157 -315 336 -315c177 0 336 94 336 315c0 162 -125 296 -336 296s-336 -134 -336 -296zM580 900h49c-6 -31 -21 -108 -93 -108c-30 0 -53 10 -73 20
c-20 9 -37 19 -56 19c-18 0 -45 -8 -45 -46h-47c8 32 14 107 95 107c27 0 50 -9 70 -18c21 -10 40 -19 57 -19c23 0 42 16 43 45z" />
    <glyph glyph-name="Scaron" unicode="&#x160;" horiz-adv-x="832" 
d="M34 150l68 58c42 -56 112 -148 330 -148c112 0 265 32 265 145c0 221 -634 27 -634 322c0 155 143 218 341 218c192 0 310 -79 360 -149l-64 -52c-30 34 -100 127 -298 127c-146 0 -249 -38 -249 -130c0 -220 634 -10 634 -336c0 -122 -118 -223 -365 -223
c-238 0 -326 99 -388 168zM573 917l-112 -142h-92l-110 142h84l72 -94l72 94h86z" />
    <glyph glyph-name="Uacute" unicode="&#xda;" horiz-adv-x="944" 
d="M846 727v-428c0 -263 -205 -317 -374 -317s-374 54 -374 317v428h88v-428c0 -167 107 -243 286 -243s286 76 286 243v428h88zM400 775l107 142h114l-148 -142h-73z" />
    <glyph glyph-name="Ucircumflex" unicode="&#xdb;" horiz-adv-x="944" 
d="M846 727v-428c0 -263 -205 -317 -374 -317s-374 54 -374 317v428h88v-428c0 -167 107 -243 286 -243s286 76 286 243v428h88zM315 775l112 142h92l110 -142h-84l-72 94l-72 -94h-86z" />
    <glyph glyph-name="Udieresis" unicode="&#xdc;" horiz-adv-x="944" 
d="M846 727v-428c0 -263 -205 -317 -374 -317s-374 54 -374 317v428h88v-428c0 -167 107 -243 286 -243s286 76 286 243v428h88zM336 802v102h90v-102h-90zM518 802v102h90v-102h-90z" />
    <glyph glyph-name="Ugrave" unicode="&#xd9;" horiz-adv-x="944" 
d="M846 727v-428c0 -263 -205 -317 -374 -317s-374 54 -374 317v428h88v-428c0 -167 107 -243 286 -243s286 76 286 243v428h88zM437 917l107 -142h-73l-148 142h114z" />
    <glyph glyph-name="Yacute" unicode="&#xdd;" horiz-adv-x="888" 
d="M400 0v294l-375 433h115l304 -355l304 355h115l-375 -433v-294h-88zM372 775l107 142h114l-148 -142h-73z" />
    <glyph glyph-name="Ydieresis" unicode="&#x178;" horiz-adv-x="888" 
d="M400 0v294l-375 433h115l304 -355l304 355h115l-375 -433v-294h-88zM308 802v102h90v-102h-90zM490 802v102h90v-102h-90z" />
    <glyph glyph-name="Zcaron" unicode="&#x17d;" horiz-adv-x="778" 
d="M18 0v52l588 597h-558v78h700v-55l-584 -594h596v-78h-742zM546 917l-112 -142h-92l-110 142h84l72 -94l72 94h86z" />
    <glyph glyph-name="aacute" unicode="&#xe1;" 
d="M588 370v-289c0 -31 4 -53 9 -81h-81c-4 16 -10 42 -10 63c-76 -49 -161 -79 -261 -79c-86 0 -213 24 -213 159c0 181 271 188 475 212v20c0 71 -85 98 -168 98c-139 0 -188 -58 -214 -88l-61 42c30 37 87 112 269 112c119 0 255 -35 255 -169zM507 132v157
c-238 -23 -398 -45 -398 -146c0 -82 92 -93 132 -93c113 0 214 54 266 82zM262 598l107 142h114l-148 -142h-73z" />
    <glyph glyph-name="acircumflex" unicode="&#xe2;" 
d="M588 370v-289c0 -31 4 -53 9 -81h-81c-4 16 -10 42 -10 63c-76 -49 -161 -79 -261 -79c-86 0 -213 24 -213 159c0 181 271 188 475 212v20c0 71 -85 98 -168 98c-139 0 -188 -58 -214 -88l-61 42c30 37 87 112 269 112c119 0 255 -35 255 -169zM507 132v157
c-238 -23 -398 -45 -398 -146c0 -82 92 -93 132 -93c113 0 214 54 266 82zM177 598l112 142h92l110 -142h-84l-72 94l-72 -94h-86z" />
    <glyph glyph-name="adieresis" unicode="&#xe4;" 
d="M588 370v-289c0 -31 4 -53 9 -81h-81c-4 16 -10 42 -10 63c-76 -49 -161 -79 -261 -79c-86 0 -213 24 -213 159c0 181 271 188 475 212v20c0 71 -85 98 -168 98c-139 0 -188 -58 -214 -88l-61 42c30 37 87 112 269 112c119 0 255 -35 255 -169zM507 132v157
c-238 -23 -398 -45 -398 -146c0 -82 92 -93 132 -93c113 0 214 54 266 82zM198 625v102h90v-102h-90zM380 625v102h90v-102h-90z" />
    <glyph glyph-name="agrave" unicode="&#xe0;" 
d="M588 370v-289c0 -31 4 -53 9 -81h-81c-4 16 -10 42 -10 63c-76 -49 -161 -79 -261 -79c-86 0 -213 24 -213 159c0 181 271 188 475 212v20c0 71 -85 98 -168 98c-139 0 -188 -58 -214 -88l-61 42c30 37 87 112 269 112c119 0 255 -35 255 -169zM507 132v157
c-238 -23 -398 -45 -398 -146c0 -82 92 -93 132 -93c113 0 214 54 266 82zM299 740l107 -142h-73l-148 142h114z" />
    <glyph glyph-name="aring" unicode="&#xe5;" 
d="M588 370v-289c0 -31 4 -53 9 -81h-81c-4 16 -10 42 -10 63c-76 -49 -161 -79 -261 -79c-86 0 -213 24 -213 159c0 181 271 188 475 212v20c0 71 -85 98 -168 98c-139 0 -188 -58 -214 -88l-61 42c30 37 87 112 269 112c119 0 255 -35 255 -169zM507 132v157
c-238 -23 -398 -45 -398 -146c0 -82 92 -93 132 -93c113 0 214 54 266 82zM334 600c-67 0 -120 55 -120 120c0 66 54 120 120 120s120 -54 120 -120c0 -65 -53 -120 -120 -120zM263 720c0 -37 32 -71 71 -71c38 0 71 33 71 71s-33 71 -71 71c-39 0 -71 -34 -71 -71z" />
    <glyph glyph-name="atilde" unicode="&#xe3;" 
d="M588 370v-289c0 -31 4 -53 9 -81h-81c-4 16 -10 42 -10 63c-76 -49 -161 -79 -261 -79c-86 0 -213 24 -213 159c0 181 271 188 475 212v20c0 71 -85 98 -168 98c-139 0 -188 -58 -214 -88l-61 42c30 37 87 112 269 112c119 0 255 -35 255 -169zM507 132v157
c-238 -23 -398 -45 -398 -146c0 -82 92 -93 132 -93c113 0 214 54 266 82zM442 723h49c-6 -31 -21 -108 -93 -108c-30 0 -53 10 -73 20c-20 9 -37 19 -56 19c-18 0 -45 -8 -45 -46h-47c8 32 14 107 95 107c27 0 50 -9 70 -18c21 -10 40 -19 57 -19c23 0 42 16 43 45z" />
    <glyph glyph-name="ccedilla" unicode="&#xe7;" 
d="M228 -210l17 47c19 -7 39 -15 65 -15c29 0 57 11 57 41c0 27 -22 40 -42 40c-17 0 -28 -3 -45 -8l-18 19l53 72c-175 8 -283 126 -283 277c0 180 138 276 300 276c158 0 233 -75 273 -143l-70 -40c-23 37 -72 114 -203 114c-108 0 -219 -62 -219 -215
c0 -115 98 -202 226 -202c85 0 158 25 213 120l70 -39c-43 -76 -114 -142 -260 -149l-35 -45l2 -2c9 3 16 4 29 4c69 0 87 -39 87 -77c0 -40 -38 -95 -124 -95c-29 0 -62 9 -93 20z" />
    <glyph glyph-name="eacute" unicode="&#xe9;" 
d="M549 155l63 -46c-54 -57 -106 -125 -284 -125c-176 0 -296 120 -296 280c0 166 125 275 286 275c167 0 313 -87 309 -294h-514c8 -98 87 -192 223 -192c135 0 180 61 213 102zM116 314h423c-16 86 -90 156 -214 156c-119 0 -186 -60 -209 -156zM262 598l107 142h114
l-148 -142h-73z" />
    <glyph glyph-name="ecircumflex" unicode="&#xea;" 
d="M549 155l63 -46c-54 -57 -106 -125 -284 -125c-176 0 -296 120 -296 280c0 166 125 275 286 275c167 0 313 -87 309 -294h-514c8 -98 87 -192 223 -192c135 0 180 61 213 102zM116 314h423c-16 86 -90 156 -214 156c-119 0 -186 -60 -209 -156zM177 598l112 142h92
l110 -142h-84l-72 94l-72 -94h-86z" />
    <glyph glyph-name="edieresis" unicode="&#xeb;" 
d="M549 155l63 -46c-54 -57 -106 -125 -284 -125c-176 0 -296 120 -296 280c0 166 125 275 286 275c167 0 313 -87 309 -294h-514c8 -98 87 -192 223 -192c135 0 180 61 213 102zM116 314h423c-16 86 -90 156 -214 156c-119 0 -186 -60 -209 -156zM198 625v102h90v-102h-90z
M380 625v102h90v-102h-90z" />
    <glyph glyph-name="egrave" unicode="&#xe8;" 
d="M549 155l63 -46c-54 -57 -106 -125 -284 -125c-176 0 -296 120 -296 280c0 166 125 275 286 275c167 0 313 -87 309 -294h-514c8 -98 87 -192 223 -192c135 0 180 61 213 102zM116 314h423c-16 86 -90 156 -214 156c-119 0 -186 -60 -209 -156zM299 740l107 -142h-73
l-148 142h114z" />
    <glyph glyph-name="iacute" unicode="&#xed;" horiz-adv-x="223" 
d="M71 0v523h81v-523h-81zM40 598l107 142h114l-148 -142h-73z" />
    <glyph glyph-name="icircumflex" unicode="&#xee;" horiz-adv-x="223" 
d="M71 0v523h81v-523h-81zM-45 598l112 142h92l110 -142h-84l-72 94l-72 -94h-86z" />
    <glyph glyph-name="idieresis" unicode="&#xef;" horiz-adv-x="223" 
d="M71 0v523h81v-523h-81zM-24 625v102h90v-102h-90zM158 625v102h90v-102h-90z" />
    <glyph glyph-name="igrave" unicode="&#xec;" horiz-adv-x="223" 
d="M71 0v523h81v-523h-81zM77 740l107 -142h-73l-148 142h114z" />
    <glyph glyph-name="ntilde" unicode="&#xf1;" 
d="M75 0v523h81v-76c55 48 127 92 220 92c65 0 216 -15 216 -194v-345h-81v329c2 124 -88 141 -145 141c-89 0 -163 -55 -210 -105v-365h-81zM442 723h49c-6 -31 -21 -108 -93 -108c-30 0 -53 10 -73 20c-20 9 -37 19 -56 19c-18 0 -45 -8 -45 -46h-47c8 32 14 107 95 107
c27 0 50 -9 70 -18c21 -10 40 -19 57 -19c23 0 42 16 43 45z" />
    <glyph glyph-name="oacute" unicode="&#xf3;" 
d="M334 -16c-178 0 -302 102 -302 287c0 149 118 268 302 268s301 -119 301 -268c0 -185 -123 -287 -301 -287zM334 53c137 0 220 83 220 208c0 95 -62 209 -220 209s-221 -114 -221 -209c0 -125 84 -208 221 -208zM262 598l107 142h114l-148 -142h-73z" />
    <glyph glyph-name="ocircumflex" unicode="&#xf4;" 
d="M334 -16c-178 0 -302 102 -302 287c0 149 118 268 302 268s301 -119 301 -268c0 -185 -123 -287 -301 -287zM334 53c137 0 220 83 220 208c0 95 -62 209 -220 209s-221 -114 -221 -209c0 -125 84 -208 221 -208zM177 598l112 142h92l110 -142h-84l-72 94l-72 -94h-86z
" />
    <glyph glyph-name="odieresis" unicode="&#xf6;" 
d="M334 -16c-178 0 -302 102 -302 287c0 149 118 268 302 268s301 -119 301 -268c0 -185 -123 -287 -301 -287zM334 53c137 0 220 83 220 208c0 95 -62 209 -220 209s-221 -114 -221 -209c0 -125 84 -208 221 -208zM198 625v102h90v-102h-90zM380 625v102h90v-102h-90z" />
    <glyph glyph-name="ograve" unicode="&#xf2;" 
d="M334 -16c-178 0 -302 102 -302 287c0 149 118 268 302 268s301 -119 301 -268c0 -185 -123 -287 -301 -287zM334 53c137 0 220 83 220 208c0 95 -62 209 -220 209s-221 -114 -221 -209c0 -125 84 -208 221 -208zM299 740l107 -142h-73l-148 142h114z" />
    <glyph glyph-name="otilde" unicode="&#xf5;" 
d="M334 -16c-178 0 -302 102 -302 287c0 149 118 268 302 268s301 -119 301 -268c0 -185 -123 -287 -301 -287zM334 53c137 0 220 83 220 208c0 95 -62 209 -220 209s-221 -114 -221 -209c0 -125 84 -208 221 -208zM442 723h49c-6 -31 -21 -108 -93 -108
c-30 0 -53 10 -73 20c-20 9 -37 19 -56 19c-18 0 -45 -8 -45 -46h-47c8 32 14 107 95 107c27 0 50 -9 70 -18c21 -10 40 -19 57 -19c23 0 42 16 43 45z" />
    <glyph glyph-name="scaron" unicode="&#x161;" horiz-adv-x="611" 
d="M27 108l60 55c51 -64 127 -110 237 -110c86 0 164 27 164 89c0 148 -435 22 -435 238c0 119 122 159 232 159c176 0 240 -75 267 -113l-55 -50c-43 55 -110 94 -213 94c-96 0 -150 -30 -150 -85c0 -135 435 -13 435 -237c0 -120 -118 -164 -252 -164
c-116 0 -212 33 -290 124zM463 740l-112 -142h-92l-110 142h84l72 -94l72 94h86z" />
    <glyph glyph-name="uacute" unicode="&#xfa;" 
d="M592 523v-523h-81v76c-55 -48 -127 -92 -220 -92c-65 0 -216 15 -216 194v345h81v-329c-2 -124 88 -141 145 -141c89 0 163 55 210 105v365h81zM262 598l107 142h114l-148 -142h-73z" />
    <glyph glyph-name="ucircumflex" unicode="&#xfb;" 
d="M592 523v-523h-81v76c-55 -48 -127 -92 -220 -92c-65 0 -216 15 -216 194v345h81v-329c-2 -124 88 -141 145 -141c89 0 163 55 210 105v365h81zM177 598l112 142h92l110 -142h-84l-72 94l-72 -94h-86z" />
    <glyph glyph-name="udieresis" unicode="&#xfc;" 
d="M592 523v-523h-81v76c-55 -48 -127 -92 -220 -92c-65 0 -216 15 -216 194v345h81v-329c-2 -124 88 -141 145 -141c89 0 163 55 210 105v365h81zM198 625v102h90v-102h-90zM380 625v102h90v-102h-90z" />
    <glyph glyph-name="ugrave" unicode="&#xf9;" 
d="M592 523v-523h-81v76c-55 -48 -127 -92 -220 -92c-65 0 -216 15 -216 194v345h81v-329c-2 -124 88 -141 145 -141c89 0 163 55 210 105v365h81zM299 740l107 -142h-73l-148 142h114z" />
    <glyph glyph-name="yacute" unicode="&#xfd;" 
d="M49 -168v74c26 -12 67 -16 94 -16c62 0 102 30 150 130l-269 503h88l224 -422l214 422h88l-306 -590c-33 -64 -89 -117 -183 -117c-34 0 -67 6 -100 16zM262 598l107 142h114l-148 -142h-73z" />
    <glyph glyph-name="ydieresis" unicode="&#xff;" 
d="M49 -168v74c26 -12 67 -16 94 -16c62 0 102 30 150 130l-269 503h88l224 -422l214 422h88l-306 -590c-33 -64 -89 -117 -183 -117c-34 0 -67 6 -100 16zM198 625v102h90v-102h-90zM380 625v102h90v-102h-90z" />
    <glyph glyph-name="zcaron" unicode="&#x17e;" horiz-adv-x="611" 
d="M564 523l-2 -50l-396 -404h407v-69h-535v51l397 403h-376v69h505zM463 740l-112 -142h-92l-110 142h84l72 -94l72 94h86z" />
    <glyph glyph-name="Omega" unicode="&#x2126;" horiz-adv-x="948" 
d="M266 57v3c-94 61 -181 173 -181 327c0 207 173 360 392 360c231 0 385 -174 385 -357c0 -161 -92 -275 -183 -330v-3h201v-57h-306v43c106 50 212 160 212 338c0 143 -110 309 -309 309c-191 0 -315 -145 -315 -312s105 -286 211 -335v-43h-306v57h199z" />
    <glyph glyph-name="uni03BC" unicode="&#x3bc;" 
d="M511 0v76c-55 -48 -127 -92 -213 -92c-34 0 -94 0 -142 41v-209h-81v707h81v-329c-2 -124 88 -141 145 -141c89 0 163 55 210 105v365h81v-523h-81z" />
    <glyph glyph-name="pi" unicode="&#x3c0;" horiz-adv-x="720" 
d="M688 486h-109v-319c0 -99 9 -138 19 -167h-75c-11 16 -20 58 -20 156v330h-252c-8 -142 -50 -397 -96 -486h-76c48 107 89 339 96 486c-86 0 -124 -6 -152 -17l-13 47c33 17 82 29 176 29h510z" />
    <glyph glyph-name="Euro" unicode="&#x20ac;" horiz-adv-x="722" 
d="M671 155v-108c-31 -26 -60 -39 -101 -50c-16 -4 -58 -15 -107 -15c-92 0 -193 29 -258 103c-44 49 -73 119 -82 188h-87l20 62h60v5c0 9 -1 18 -1 27c0 5 0 14 2 42h-81l20 62h69c12 60 39 120 74 163c51 61 137 111 256 111c50 0 105 -9 150 -28c37 -15 61 -34 79 -50
l-29 -87c-23 33 -54 57 -85 70c-34 15 -83 21 -115 21c-107 0 -169 -51 -200 -93c-14 -19 -25 -39 -33 -61c-6 -15 -10 -30 -13 -46h411l-20 -62h-401c-2 -11 -3 -22 -3 -36c0 -10 1 -20 1 -30v-8h379l-21 -62h-351c8 -47 29 -96 62 -134c43 -49 108 -83 201 -83
c19 0 38 2 57 6c25 5 49 14 71 27c38 22 62 48 76 66z" />
    <glyph glyph-name="afii61289" unicode="&#x2113;" horiz-adv-x="607" 
d="M536 164l39 -32c-56 -97 -138 -145 -235 -145c-134 0 -195 96 -203 193v12c-23 -16 -49 -37 -74 -55l-25 44c34 26 68 49 98 74v293c0 200 98 258 185 258c108 0 156 -84 156 -174c0 -138 -109 -265 -270 -401v-22c1 -114 76 -164 148 -164c84 0 151 64 181 119zM207 563
v-264c117 110 211 216 211 327c0 71 -25 128 -98 128c-48 0 -113 -46 -113 -191z" />
    <glyph glyph-name="estimated" unicode="&#x212e;" horiz-adv-x="920" 
d="M883 353h-686c-3 0 -6 -1 -6 -5v-207c0 -9 4 -17 9 -24c67 -69 158 -113 260 -113c109 0 207 50 273 126h61c-76 -89 -199 -147 -335 -147c-234 0 -423 170 -423 380c0 211 189 382 423 382c235 0 424 -171 424 -382v-10zM728 380v209c0 9 -4 18 -11 25
c-66 65 -157 108 -257 108s-192 -44 -258 -112c-7 -7 -11 -16 -11 -26v-204c0 -2 3 -7 6 -7h526c3 0 5 5 5 7z" />
    <glyph glyph-name="partialdiff" unicode="&#x2202;" horiz-adv-x="685" 
d="M126 706l-29 47c40 30 107 63 209 63c164 0 314 -145 314 -402c0 -211 -106 -429 -325 -429c-169 0 -243 140 -243 247c0 159 124 262 265 262c129 0 208 -95 227 -128h1c2 16 2 41 2 56c0 210 -117 337 -247 337c-82 0 -139 -29 -174 -53zM300 42h1
c130 0 213 126 232 257c-19 50 -95 139 -204 139s-202 -89 -202 -203c0 -105 69 -193 173 -193z" />
    <glyph glyph-name="product" unicode="&#x220f;" horiz-adv-x="886" 
d="M855 671h-149v-772h-72v772h-383v-772h-73v772h-148v63h825v-63z" />
    <glyph glyph-name="summation" unicode="&#x2211;" horiz-adv-x="703" 
d="M674 -101h-648v44l351 371l-335 372v48h615v-63h-504v-3l312 -347l-334 -354v-3h543v-65z" />
    <glyph glyph-name="uni2219" unicode="&#x2219;" horiz-adv-x="361" 
d="M107 320c0 33 27 60 60 60s60 -27 60 -60s-27 -60 -60 -60s-60 27 -60 60z" />
    <glyph glyph-name="radical" unicode="&#x221a;" horiz-adv-x="704" 
d="M710 868l-282 -1028h-70l-205 493l-94 -35l-17 43l156 62l174 -430c7 -20 14 -42 20 -63l2 -1c3 20 11 44 16 65l241 894h59z" />
    <glyph glyph-name="infinity" unicode="&#x221e;" horiz-adv-x="933" 
d="M870 304v-1c0 -112 -87 -184 -180 -184c-77 0 -136 54 -222 146c-64 -72 -130 -146 -229 -146c-95 0 -176 80 -176 181c0 105 80 184 185 184c91 0 161 -73 225 -146c65 72 128 146 226 146c105 0 171 -75 171 -180zM247 167h1c79 0 143 81 193 132
c-54 64 -113 140 -202 140c-78 0 -124 -68 -124 -141c0 -71 52 -131 132 -131zM694 439h-1c-84 0 -151 -93 -195 -135c83 -88 132 -137 197 -137c79 0 124 68 124 133c0 88 -55 139 -125 139z" />
    <glyph glyph-name="integral" unicode="&#x222b;" horiz-adv-x="415" 
d="M404 877l-14 -48c-10 7 -32 13 -48 13c-19 0 -47 -5 -64 -23c-33 -33 -44 -93 -44 -191c0 -163 17 -366 17 -532c0 -117 -28 -178 -54 -212c-24 -33 -67 -51 -110 -51c-30 0 -65 12 -80 21l15 49c10 -5 33 -16 60 -16c20 0 43 9 57 23c27 30 48 75 48 188
c0 168 -18 374 -18 537c0 113 17 179 64 221c31 29 68 38 105 38c25 0 54 -9 66 -17z" />
    <glyph glyph-name="approxequal" unicode="&#x2248;" horiz-adv-x="714" 
d="M620 466l30 -29c-35 -59 -81 -106 -157 -106c-53 0 -88 20 -151 51c-37 20 -76 40 -119 40c-60 0 -96 -43 -130 -88l-32 28c39 68 100 108 170 108c60 0 104 -32 141 -51c45 -22 73 -41 123 -41c52 0 87 28 125 88zM620 266l30 -30c-35 -58 -81 -105 -157 -105
c-54 0 -89 20 -151 52c-37 19 -76 39 -119 39c-61 0 -96 -43 -130 -89l-32 30c39 67 101 107 169 107c61 0 105 -31 142 -50c41 -21 72 -42 124 -42s85 28 124 88z" />
    <glyph glyph-name="notequal" unicode="&#x2260;" horiz-adv-x="714" 
d="M501 562l-60 -124h208v-48h-230l-88 -182h318v-47h-340l-71 -149l-40 20l62 129h-196v47h219l87 182h-306v48h328l69 144z" />
    <glyph glyph-name="lessequal" unicode="&#x2264;" horiz-adv-x="714" 
d="M646 84l-574 264v51l574 263v-56l-518 -231v-2l518 -232v-57zM648 -12h-585v48h585v-48z" />
    <glyph glyph-name="greaterequal" unicode="&#x2265;" horiz-adv-x="714" 
d="M72 662l574 -263v-51l-574 -264v57l517 231v2l-517 232v56zM647 -12h-583v48h583v-48z" />
    <glyph glyph-name="lozenge" unicode="&#x25ca;" horiz-adv-x="705" 
d="M637 366l-256 -424h-58l-255 424l255 425h59zM568 364l-192 323c-9 15 -19 35 -24 48h-2c-6 -15 -15 -31 -25 -48l-190 -319l194 -324c11 -20 19 -35 23 -46h3c4 12 14 32 23 46z" />
    <glyph glyph-name="uni00A0" unicode="&#xa0;" horiz-adv-x="361" 
 />
    <glyph glyph-name="uni00AD" unicode="&#xad;" horiz-adv-x="333" 
d="M31 304h271v-74h-271v74z" />
    <glyph glyph-name="uni02C9" unicode="&#x2c9;" horiz-adv-x="222" 
d="M257 690v-58h-292v58h292z" />
    <glyph glyph-name="uni03A9" unicode="&#x3a9;" horiz-adv-x="948" 
d="M266 57v3c-94 61 -181 173 -181 327c0 207 173 360 392 360c231 0 385 -174 385 -357c0 -161 -92 -275 -183 -330v-3h201v-57h-306v43c106 50 212 160 212 338c0 143 -110 309 -309 309c-191 0 -315 -145 -315 -312s105 -286 211 -335v-43h-306v57h199z" />
    <glyph glyph-name="uni2215" unicode="&#x2215;" horiz-adv-x="167" 
d="M-112 -18h-58l450 763h57z" />
    <glyph glyph-name="a.superior" horiz-adv-x="434" 
d="M32 508c0 110 187 117 302 128v11c0 38 -48 54 -102 54c-91 0 -123 -36 -134 -51l-45 28c19 22 56 67 175 67c77 0 166 -21 166 -101v-173c0 -19 2 -32 5 -49h-52c-2 10 -6 25 -6 38c-50 -30 -105 -48 -170 -48c-56 0 -139 15 -139 96zM334 501v91
c-141 -13 -246 -28 -246 -84c0 -43 55 -52 80 -52c75 0 140 34 166 45z" />
    <glyph glyph-name="o.superior" horiz-adv-x="434" 
d="M217 412c-116 0 -196 62 -196 173c0 89 76 160 196 160c119 0 196 -71 196 -160c0 -111 -80 -173 -196 -173zM217 458c89 0 140 50 140 121c0 54 -40 122 -140 122s-140 -68 -140 -122c0 -71 54 -121 140 -121z" />
    <glyph glyph-name="one.superior" horiz-adv-x="469" 
d="M122 298v56h91v319l-99 -7v48c39 5 92 21 119 31h40v-391h91v-56h-242z" />
    <glyph glyph-name="two.superior" horiz-adv-x="469" 
d="M436 354v-56h-408v52c3 15 39 78 156 132c112 51 187 57 187 133c0 48 -49 74 -132 74c-105 0 -141 -57 -153 -93l-53 33c16 44 74 116 206 116c134 0 197 -52 197 -128c0 -92 -77 -121 -153 -152c-87 -35 -146 -60 -185 -111h338z" />
    <glyph glyph-name="three.superior" horiz-adv-x="469" 
d="M12 369l46 45c41 -48 97 -71 162 -71c69 0 147 25 147 80c0 51 -49 78 -157 78h-75v56h68c83 0 148 15 148 65c0 38 -57 67 -128 67c-70 0 -121 -27 -149 -60l-44 45c38 36 86 71 201 71c78 0 185 -26 185 -115c0 -66 -50 -87 -79 -98v-2c44 -12 95 -36 95 -105
c0 -104 -101 -138 -208 -138c-123 0 -177 49 -212 82z" />
    <glyph glyph-name="uni2206" unicode="&#x2206;" horiz-adv-x="832" 
d="M38 0v53l335 704h88l332 -704v-53h-755zM117 58h591l-201 430c-23 53 -74 158 -91 204h-5c-12 -32 -58 -129 -81 -182z" />
    <glyph glyph-name="uni2010" unicode="&#x2010;" horiz-adv-x="333" 
d="M31 304h271v-74h-271v74z" />
    </font>
</defs>
</svg>
